<svg xmlns="http://www.w3.org/2000/svg" xml:space="preserve" width="438" height="438" viewBox="0 0 115.8875 115.8875"><circle cx="57.943748" cy="57.943752" r="57.943748" fill="#fff" style="stroke-width:.264583"/><path fill="#96ca4b" stroke="#96ca4b" stroke-width="1.5875" d="M53.710414 105.22479c-24.13-2.14312-43.127082-22.48958-43.127082-47.17521 0-24.68562 18.997082-45.00562 43.127082-47.14875V5.58271C26.643544 7.75229 5.291665 30.45354 5.291665 58.07604s21.351879 50.32375 48.418749 52.49333z"/><path fill="#5f7fbf" stroke="#5f7fbf" stroke-width="1.5875" d="M62.177084 5.58271v5.31812c24.13 2.14313 43.127076 22.48959 43.127076 47.17521 0 24.68563-18.997076 45.03208-43.127076 47.17521v5.31812c27.06687-2.16958 48.418746-24.87083 48.418746-52.49333S89.243954 7.75229 62.177084 5.58271z"/><g style="stroke-width:.890699" transform="translate(-7.0597955 -6.7152155)scale(1.1227133)"><circle cx="78.513626" cy="40.392456" r="5.4371872" class="cls-1" style="fill:#5f7fbf;fill-opacity:1;stroke-width:.235664"/><rect width="35.956871" height="10.845271" x="31.846416" y="34.987019" class="cls-1" rx="5.4239583" ry="5.4239583" style="fill:#5f7fbf;fill-opacity:1;stroke-width:.235664"/><circle cx="37.283604" cy="57.614185" r="5.4371872" class="cls-2" data-name="Oval-38-Copy-9" style="fill:#96ca4b;fill-opacity:1;stroke-width:.235664"/><rect width="35.956871" height="10.845271" x="-83.950813" y="-63.054024" class="cls-1" rx="5.4239583" ry="5.4239583" style="fill:#5f7fbf;fill-opacity:1;stroke-width:.235664" transform="scale(-1)"/><circle cx="78.513626" cy="74.790939" r="5.4371872" class="cls-1" data-name="Oval-38-Copy-9" style="fill:#5f7fbf;fill-opacity:1;stroke-width:.235664"/><rect width="35.956871" height="10.845271" x="31.846416" y="69.351105" class="cls-1" rx="5.4239583" ry="5.4239583" style="fill:#5f7fbf;fill-opacity:1;stroke-width:.235664"/></g></svg>
